Naked.Weapon.Unrated.2002.BRrip.720p.Dual.Audio.Eng-Hindi~MSBHATTI

IMDB:- http://www.imdb.com/title/tt0341495/

PLOT:- Like a contagious virus, pretty and athletic girls in their teens start disappearing around the globe one after another. The mastermind behind these abductions is Madame M, who plans to train these girls into professional killers. After several years of gruesome training, only Charlene, Katt and Jill survive and become the world's most sought after professional killers. On a recent mission to assassinate someone in Hong Kong, however CIA agent Jack, who vows to help her reclaim her past by eliminating Madame M.

Director: Siu-Tung Ching
Writer: Jing Wong
Stars: Marit Thoresen, Almen Wong Pui-Ha and Daniel Wu 

INFO:-
General
Complete name                    : Naked.Weapon.Unrated.2002.BRrip.720p.Dual.Audio.Eng-Hindi~MSBHATTI
Format                           : Matroska
File size                        : 2.30 GiB
Duration                         : 1h 27mn
Overall bit rate                 : 3 753 Kbps
Movie name                       : Naked.Weapon.2002.BDRip.720p.AdiT
Encoded date                     : UTC 2011-12-22 16:53:13
Writing application              : mkvmerge v3.3.0 ('Language') built on Mar 24 2010 14:59:24
Writing library                  : libebml v0.8.0 + libmatroska v0.9.0
Cover                            : Yes

Video
ID                               : 1
Format                           : AVC
Format/Info                      : Advanced Video Codec
Format profile                   : High@L5.0
Format settings, CABAC           : Yes
Format settings, ReFrames        : 10 frames
Codec ID                         : V_MPEG4/ISO/AVC
Duration                         : 1h 27mn
Bit rate                         : 2 968 Kbps
Width                            : 1 280 pixels
Height                           : 712 pixels
Display aspect ratio             : 16:9
Frame rate                       : 25.025 fps
Original frame rate              : 24.000 fps
Color space                      : YUV
Chroma subsampling               : 4:2:0
Bit depth                        : 8 bits
Scan type                        : Progressive
Bits/(Pixel*Frame)               : 0.130
Stream size                      : 1.86 GiB (81%)
Writing library                  : x264 core 67 r1145M d2e1e1c
Encoding settings                : cabac=1 / ref=10 / deblock=1:-1:-1 / analyse=0x3:0x133 / me=umh / subme=9 / psy_rd=1.0:0.0 / mixed_ref=1 / me_range=32 / chroma_me=1 / trellis=2 / 8x8dct=1 / cqm=0 / deadzone=21,11 / chroma_qp_offset=-2 / threads=6 / nr=0 / decimate=1 / mbaff=0 / bframes=4 / b_pyramid=1 / b_adapt=2 / b_bias=0 / direct=3 / wpredb=1 / keyint=250 / keyint_min=25 / scenecut=40 / rc=2pass / bitrate=2968 / ratetol=1.0 / qcomp=0.60 / qpmin=10 / qpmax=51 / qpstep=4 / cplxblur=20.0 / qblur=0.5 / ip_ratio=1.40 / pb_ratio=1.30 / aq=1:1.50

Audio #1
ID                               : 2
Format                           : AC-3
Format/Info                      : Audio Coding 3
Mode extension                   : CM (complete main)
Codec ID                         : A_AC3
Duration                         : 1h 27mn
Bit rate mode                    : Constant
Bit rate                         : 384 Kbps
Channel(s)                       : 6 channels
Channel positions                : Front: L C R, Side: L R, LFE
Sampling rate                    : 48.0 KHz
Bit depth                        : 16 bits
Compression mode                 : Lossy
Stream size                      : 241 MiB (10%)
Title                            : MSBHATTI
Language                         : English

Audio #2
ID                               : 3
Format                           : MPEG Audio
Format version                   : Version 1
Format profile                   : Layer 3
Codec ID                         : A_MPEG/L3
Codec ID/Hint                    : MP3
Duration                         : 1h 27mn
Bit rate mode                    : Constant
Bit rate                         : 256 Kbps
Channel(s)                       : 2 channels
Sampling rate                    : 48.0 KHz
Compression mode                 : Lossy
Stream size                      : 161 MiB (7%)
Title                            : MSBHATTI
Language                         : Hindi

SCREENSHOTS:-
[IMG]http://i.imgur.com/Y8Jne.jpg[/IMG]
[IMG]http://i.imgur.com/yHCgd.jpg[/IMG]
[IMG]http://i.imgur.com/L1top.jpg[/IMG]
[IMG]http://i.imgur.com/a6Z4i.jpg[/IMG]
[IMG]http://i.imgur.com/TlPpt.jpg[/IMG]

NOTE:- IF U LIKE MY WORK SO COMMENT PLZ

REGARDS

MSBHATTI